<svg xmlns="http://www.w3.org/2000/svg" width="592" height="204" viewBox="0 0 592 204" role="img" aria-labelledby="card-title card-description">
<title id="card-title">雨落草听的短篇小说</title>
<desc id="card-description">Author: 雨落草听 · Heat: 261</desc>
<defs>
<clipPath id="card-clip"><rect width="592" height="204" rx="28"/></clipPath>
<clipPath id="icon-clip"><rect x="20" y="20" width="80" height="80" rx="16"/></clipPath>
<filter id="artwork-blur" x="-25%" y="-50%" width="150%" height="200%"><feGaussianBlur stdDeviation="22"/></filter>
<filter id="icon-shadow" x="-30%" y="-30%" width="160%" height="170%"><feDropShadow dx="0" dy="5" stdDeviation="7" flood-color="#0f172a" flood-opacity=".16"/></filter>
<linearGradient id="light-overlay" x1="0" y1="0" x2="0" y2="1"><stop offset="0" stop-color="#ffffff" stop-opacity=".76"/><stop offset=".54" stop-color="#ffffff" stop-opacity=".9"/><stop offset="1" stop-color="#f8fafc" stop-opacity=".98"/></linearGradient>
<linearGradient id="dark-overlay" x1="0" y1="0" x2="0" y2="1"><stop offset="0" stop-color="#0f172a" stop-opacity=".76"/><stop offset=".54" stop-color="#020617" stop-opacity=".9"/><stop offset="1" stop-color="#020617" stop-opacity=".98"/></linearGradient>
<style>
.card-base{fill:#fff}.card-overlay{fill:url("#light-overlay")}.card-border{fill:none;stroke:#dbe3ec}.panel{fill:#f1f5f9;fill-opacity:.88}.badge{fill:#e5f2fa}.badge-text{fill:#2475a8}.online-badge{fill:#eef2f7}.online-text{fill:#475569}.title{fill:#0f172a}.summary,.meta{fill:#64748b}.heat-pill{fill:#f1f5f9;fill-opacity:.92}.heat-text{fill:#0f172a}.icon-ring{fill:#fff;stroke:#fff;stroke-width:2}.icon-placeholder{fill:#dceaf4}.placeholder-text{fill:#4794c5}
</style>
</defs>
<g clip-path="url(#card-clip)">
<rect width="592" height="204" class="card-base"/>

<rect width="592" height="204" class="card-overlay"/>
</g>
<rect x=".5" y=".5" width="591" height="203" rx="27.5" class="card-border"/>
<g filter="url(#icon-shadow)"><rect x="20" y="20" width="80" height="80" rx="16" class="icon-ring"/></g>
<rect x="20" y="20" width="80" height="80" rx="16" class="icon-placeholder"/>
<text x="60" y="70" text-anchor="middle" class="placeholder-text" font-size="28" font-weight="700">K</text>
<rect x="116" y="22" width="52" height="25" rx="12.5" class="badge"/>
<text x="142" y="39" text-anchor="middle" class="badge-text" font-family="-apple-system,BlinkMacSystemFont,Segoe UI,Noto Sans SC,sans-serif" font-size="12" font-weight="600">Game</text>
<rect x="176" y="22" width="86" height="25" rx="12.5" class="online-badge"/>
<text x="219" y="39" text-anchor="middle" class="online-text" font-family="-apple-system,BlinkMacSystemFont,Segoe UI,Noto Sans SC,sans-serif" font-size="12" font-weight="600">Play online</text>
<text x="118" y="87" class="meta" font-family="-apple-system,BlinkMacSystemFont,Segoe UI,Noto Sans SC,sans-serif" font-size="14">Author: 雨落草听</text>
<rect x="484" y="68" width="88" height="30" rx="15" class="heat-pill"/>
<path d="M502 90c-4 0-7-2.8-7-6.7 0-2.7 1.4-5.2 4.1-7.6-.1 2.5 1.2 3.8 2.6 4.8-.2-3.4 1.8-6.2 4.3-8.5 0 3.7 3 5.3 3 9.7 0 4.7-3 8.3-7 8.3Z" fill="#f97316"/>
<text x="515" y="88" class="heat-text" font-family="-apple-system,BlinkMacSystemFont,Segoe UI,Noto Sans SC,sans-serif" font-size="14" font-weight="600">261</text>
<rect x="20" y="116" width="552" height="68" rx="16" class="panel"/>
<text x="36" y="143" class="title" font-family="-apple-system,BlinkMacSystemFont,Segoe UI,Noto Sans SC,sans-serif" font-size="20" font-weight="700">雨落草听的短篇小说</text>
<text x="36" y="169" class="summary" font-family="-apple-system,BlinkMacSystemFont,Segoe UI,Noto Sans SC,sans-serif" font-size="13">在“我”浑浑噩噩的日子里</text>
</svg>